# xmcd CD database file
#
# Track frame offsets:
#	150
#	19562
#	34513
#	50321
#	70597
#	80351
#	98089
#	114224
#	129781
#	146238
#	163863
#	178787
#	195489
#	209483
#
# Disc length: 3006 seconds
#
# Revision: 0
# Processed by: cddbd v1.5.2PL0 Copyright (c) Steve Scherf et al.
# Submitted via: CDex 1.70beta2
#
DISCID=b10bbc0e
DTITLE=Bill Leslie - Christmas in Carolina
DYEAR=2005
DGENRE=New Age
TTITLE0=Christmas in Carolina
TTITLE1=Moravian Gift
TTITLE2=In the Bleak Midwinter
TTITLE3=Road to Bethlehem
TTITLE4=Away in a Manger
TTITLE5=Appalachian Winter
TTITLE6=Lo How A Rose
TTITLE7=Waiting for William
TTITLE8=Ring of Evergreen
TTITLE9=The First Noel
TTITLE10=Swannanoa Snow
TTITLE11=Cradle of Hope
TTITLE12=Silent Night
TTITLE13=Sweet Little Jesus Boy
EXTD=YEAR: 2005
EXTT0=
EXTT1=
EXTT2=
EXTT3=
EXTT4=
EXTT5=
EXTT6=
EXTT7=
EXTT8=
EXTT9=
EXTT10=
EXTT11=
EXTT12=
EXTT13=
PLAYORDER=
